<svg width="48" height="48" viewBox="0 0 48 48" fill="none" xmlns="http://www.w3.org/2000/svg">
<path fill-rule="evenodd" clip-rule="evenodd" d="M24 0C10.7448 0 0 11.0158 0 24.6087C0 35.4796 6.876 44.7045 16.4136 47.9572C17.6136 48.1832 18.0504 47.4241 18.0504 46.7706C18.0504 46.1884 18.0312 44.6382 18.0192 42.5868C11.3424 44.0731 9.9336 39.2875 9.9336 39.2875C8.844 36.4426 7.2696 35.686 7.2696 35.686C5.0904 34.1628 7.4352 34.1923 7.4352 34.1923C9.8424 34.3643 11.1096 36.7276 11.1096 36.7276C13.2504 40.4864 16.728 39.4005 18.0936 38.7716C18.3144 37.1821 18.9336 36.0987 19.62 35.4845C14.292 34.863 8.688 32.7502 8.688 23.3214C8.688 20.6363 9.624 18.4375 11.1576 16.7178C10.9104 16.0963 10.0872 13.5929 11.3928 10.2076C11.3928 10.2076 13.4088 9.54427 17.9928 12.7281C19.9506 12.1816 21.9707 11.9032 24 11.9002C26.04 11.9101 28.092 12.1828 30.0096 12.7281C34.5912 9.54427 36.6024 10.2051 36.6024 10.2051C37.9128 13.5929 37.0872 16.0963 36.8424 16.7178C38.3784 18.4375 39.3096 20.6363 39.3096 23.3214C39.3096 32.7748 33.696 34.8556 28.3512 35.4649C29.2128 36.224 29.9784 37.725 29.9784 40.022C29.9784 43.3091 29.9496 45.9648 29.9496 46.7706C29.9496 47.429 30.3816 48.1955 31.6008 47.9547C36.3799 46.3139 40.5344 43.1772 43.4772 38.9879C46.4199 34.7986 48.002 29.7686 48 24.6087C48 11.0158 37.2528 0 24 0Z" fill="#CBD5E1"/>
</svg>
