<svg width="48" height="48" viewBox="0 0 48 48" fill="none" xmlns="http://www.w3.org/2000/svg">
<g clip-path="url(#clip0_522_259)">
<path d="M0.207275 0H48.2073V48H0.207275V0Z" fill="#F0DB4F"/>
<path d="M43.6628 36.5559C43.3115 34.3658 41.8833 32.5271 37.6537 30.8115C36.1845 30.1362 34.5464 29.6526 34.0582 28.5392C33.8848 27.8913 33.862 27.5263 33.9715 27.1339C34.2864 25.8609 35.8058 25.4639 37.0103 25.829C37.786 26.089 38.5206 26.6868 38.9632 27.6404C41.0347 26.299 41.0301 26.308 42.4765 25.3864C41.9472 24.5651 41.6643 24.1864 41.3175 23.8351C40.0719 22.4434 38.3746 21.7271 35.6597 21.7819C35.1898 21.8412 34.7153 21.905 34.2453 21.9644C32.8902 22.3066 31.5989 23.0184 30.8415 23.972C28.5693 26.5499 29.2172 31.0624 31.9822 32.9195C34.7061 34.9636 38.7077 35.429 39.2187 37.3408C39.716 39.6815 37.4986 40.4388 35.2947 40.1697C33.6704 39.832 32.767 39.0062 31.7905 37.505C29.9929 38.5453 29.9929 38.5453 28.145 39.6085C28.583 40.5666 29.0438 41.0001 29.7784 41.8305C33.2552 45.3575 41.9563 45.1841 43.5168 39.8457C43.5807 39.6632 44.0005 38.4404 43.6628 36.5559ZM25.6856 22.0647H21.1959C21.1959 25.943 21.1777 29.794 21.1777 33.6723C21.1777 36.1407 21.3054 38.4039 20.9039 39.0974C20.2469 40.4616 18.545 40.2928 17.7693 40.0281C16.9799 39.6403 16.5784 39.0882 16.113 38.308C15.9853 38.0845 15.8895 37.9111 15.8575 37.8974C14.6393 38.6411 13.4255 39.3894 12.2073 40.1331C12.8142 41.3788 13.7084 42.4601 14.8537 43.1627C16.5647 44.1894 18.8643 44.5042 21.2689 43.9521C22.8339 43.4958 24.1845 42.5514 24.8917 41.1141C25.9137 39.2297 25.6947 36.9483 25.6856 34.4252C25.7084 30.3096 25.6856 26.194 25.6856 22.0647Z" fill="#323330"/>
</g>
<defs>
<clipPath id="clip0_522_259">
<rect width="48" height="48" fill="white"/>
</clipPath>
</defs>
</svg>
