<svg width="48" height="48" viewBox="0 0 48 48" fill="none" xmlns="http://www.w3.org/2000/svg">
<g clip-path="url(#clip0_1526_181)">
<path d="M24 0C10.7451 0 0 10.7451 0 24C0 37.2548 10.7451 47.9999 24 47.9999C37.2548 47.9999 48 37.2548 48 24C47.9999 10.7451 37.2547 0 24 0ZM17.5967 35.6028H12.3273V18.5788H17.5967V35.6028ZM14.9369 16.3494C13.216 16.3494 11.8208 14.9429 11.8208 13.2081C11.8208 11.4732 13.2161 10.0668 14.9369 10.0668C16.6576 10.0668 18.0528 11.4732 18.0528 13.2081C18.0529 14.943 16.6577 16.3494 14.9369 16.3494ZM37.3439 35.6028H32.1V26.6666C32.1 24.2157 31.169 22.8475 29.231 22.8475C27.1218 22.8475 26.0199 24.2725 26.0199 26.6666V35.6028H20.9659V18.5788H26.0199V20.8716C26.0199 20.8716 27.5402 18.0595 31.15 18.0595C34.7599 18.0595 37.344 20.2637 37.344 24.8235L37.3439 35.6028Z" fill="#CBD5E1"/>
</g>
<defs>
<clipPath id="clip0_1526_181">
<rect width="48" height="48" fill="white"/>
</clipPath>
</defs>
</svg>
