<svg width="44" height="36" viewBox="0 0 44 36" fill="none" xmlns="http://www.w3.org/2000/svg">
<path d="M13.838 35.8788C30.4414 35.8788 39.523 22.1222 39.523 10.1938C39.523 9.80221 39.523 9.41281 39.4966 9.02781C41.2636 7.74857 42.7886 6.16476 44 4.35061C42.3523 5.08102 40.6044 5.56009 38.8146 5.77181C40.6992 4.64335 42.1097 2.86858 42.7834 0.777814C41.0117 1.82916 39.0736 2.57022 37.0524 2.96901C35.6915 1.5209 33.8911 0.56185 31.93 0.240365C29.9689 -0.0811203 27.9565 0.252892 26.2045 1.19069C24.4524 2.12848 23.0584 3.61774 22.2382 5.42787C21.4181 7.238 21.2176 9.26802 21.6678 11.2036C18.0787 11.0237 14.5675 10.0911 11.3622 8.4663C8.15691 6.84148 5.32912 4.56077 3.0624 1.77221C1.9081 3.75926 1.5545 6.11154 2.07358 8.35013C2.59266 10.5887 3.94541 12.5453 5.8564 13.8216C4.42037 13.78 3.01539 13.3937 1.76 12.6952V12.8096C1.76086 14.8937 2.48247 16.9133 3.80247 18.526C5.12248 20.1387 6.95963 21.2453 9.0024 21.658C7.67318 22.0204 6.27857 22.0731 4.9258 21.812C5.50255 23.6061 6.62569 25.1749 8.13808 26.2992C9.65047 27.4234 11.4765 28.0468 13.3606 28.082C11.4887 29.5529 9.34513 30.6402 7.0526 31.282C4.76007 31.9237 2.36351 32.1072 0 31.822C4.12853 34.4715 8.93241 35.8768 13.838 35.87" fill="#CBD5E1"/>
</svg>
